<svg width="40" height="40" viewBox="0 0 40 40" fill="none" xmlns="http://www.w3.org/2000/svg">
<path d="M17.0585 3.33301C9.50134 3.33301 3.33301 9.50135 3.33301 17.0585C3.33301 24.6157 9.50134 30.784 17.0585 30.784C20.4859 30.784 23.6173 29.5056 26.0276 27.4139L26.8624 28.2488V30.784L32.7448 36.6663L36.6663 32.7448L30.784 26.8624H28.2488L27.4139 26.0276C29.5056 23.6173 30.784 20.4859 30.784 17.0585C30.784 9.50135 24.6157 3.33301 17.0585 3.33301ZM17.0585 7.25458C22.4963 7.25458 26.8624 11.6207 26.8624 17.0585C26.8624 22.4963 22.4963 26.8624 17.0585 26.8624C11.6207 26.8624 7.25458 22.4963 7.25458 17.0585C7.25458 11.6207 11.6207 7.25458 17.0585 7.25458Z" fill="white"/>
</svg>
